<?xml version="1.0" encoding="utf-8"?>
<!-- Generator: Adobe Illustrator 21.0.0, SVG Export Plug-In . SVG Version: 6.00 Build 0)  -->
<svg version="1.1" xmlns="http://www.w3.org/2000/svg" xmlns:xlink="http://www.w3.org/1999/xlink" x="0px" y="0px"
	 viewBox="0 0 128 128" style="enable-background:new 0 0 128 128;" xml:space="preserve">
<style type="text/css">
	.st0{display:none;}
	.st1{display:inline;}
	.st2{fill:#7FEFAC;}
	.st3{fill:#FF6050;}
	.st4{fill:#FFFFFF;}
	.st5{fill:#4893FF;}
	.st6{fill:#FF9800;}
	.st7{fill:#D18AFF;}
	.st8{fill:#FFDD80;}
	.st9{fill:none;stroke:#1A1B1C;stroke-width:3;stroke-linecap:round;stroke-linejoin:round;stroke-miterlimit:10;}
	.st10{fill:#00AEEF;}
	.st11{fill:#98C851;}
	.st12{opacity:0.7;}
	.st13{fill:#414042;}
</style>
<g id="circle">
</g>
<g id="Layer_4" class="st0">
</g>
<g id="text">
</g>
<g id="icon">
	<g>
		<path class="st7" d="M98,119H30c-11.6,0-21-9.4-21-21V30C9,18.4,18.4,9,30,9h68c11.6,0,21,9.4,21,21v68
			C119,109.6,109.6,119,98,119z"/>
		<ellipse transform="matrix(0.7071 -0.7071 0.7071 0.7071 -26.5097 64)" class="st4" cx="64" cy="64" rx="46.3" ry="32.1"/>
		<path class="st7" d="M46.5,52.7v22.6h-3.4V52.7H46.5z"/>
		<path class="st7" d="M55.4,66.1v9.2H52V52.7h3.9c1.9,0,3.3,0.1,4.3,0.4c1,0.3,1.8,0.8,2.6,1.5c1.3,1.3,1.9,2.9,1.9,4.8
			c0,2.1-0.7,3.7-2.1,4.9s-3.3,1.8-5.6,1.8H55.4z M55.4,63h1.3c3.1,0,4.7-1.2,4.7-3.6c0-2.3-1.6-3.5-4.8-3.5h-1.1V63z"/>
		<path class="st7" d="M84.9,53.9v4c-2-1.7-4-2.5-6.1-2.5c-2.3,0-4.3,0.8-5.9,2.5c-1.6,1.7-2.4,3.7-2.4,6.1c0,2.4,0.8,4.4,2.4,6
			s3.6,2.4,5.9,2.4c1.2,0,2.2-0.2,3.1-0.6c0.5-0.2,1-0.5,1.5-0.8s1-0.7,1.6-1.2v4.1c-2,1.1-4,1.7-6.2,1.7c-3.2,0-6-1.1-8.3-3.4
			c-2.3-2.3-3.4-5-3.4-8.2c0-2.9,1-5.4,2.9-7.7c2.3-2.8,5.4-4.1,9.1-4.1C81,52.3,83,52.8,84.9,53.9z"/>
	</g>
</g>
</svg>
